{
  "accessors": [
    {
      "bufferView": 2,
      "componentType": 5126,
      "count": 6614,
      "max": [
        2.302963972091675,
        13.61151123046875,
        4.3082709312438965
      ],
      "min": [
        -2.302931070327759,
        12.099849700927734,
        0.026987476274371147
      ],
      "type": "VEC3"
    },
    {
      "bufferView": 2,
      "byteOffset": 79368,
      "componentType": 5126,
      "count": 6614,
      "max": [
        0.9999914169311523,
        0.9999018311500549,
        0.9999144077301025
      ],
      "min": [
        -0.9999914169311523,
        -0.9999980926513672,
        -0.9988950490951538
      ],
      "type": "VEC3"
    },
    {
      "bufferView": 1,
      "componentType": 5126,
      "count": 6614,
      "max": [
        0.9970700144767761,
        0.9970699548721313
      ],
      "min": [
        0.0033859999384731054,
        0.004162013530731201
      ],
      "type": "VEC2"
    },
    {
      "bufferView": 0,
      "componentType": 5125,
      "count": 29130,
      "type": "SCALAR"
    }
  ],
  "asset": {
    "extras": {
      "author": "ann55010970637 (https://sketchfab.com/ann55010970637)",
      "license": "CC-BY-4.0 (http://creativecommons.org/licenses/by/4.0/)",
      "source": "https://sketchfab.com/3d-models/hulk-fd2d33b0a2f94c40a5f4991292853c70",
      "title": "Hulk"
    },
    "generator": "Sketchfab-12.63.0",
    "version": "2.0"
  },
  "bufferViews": [
    {
      "buffer": 0,
      "byteLength": 116520,
      "name": "floatBufferViews",
      "target": 34963
    },
    {
      "buffer": 0,
      "byteLength": 52912,
      "byteOffset": 116520,
      "byteStride": 8,
      "name": "floatBufferViews",
      "target": 34962
    },
    {
      "buffer": 0,
      "byteLength": 158736,
      "byteOffset": 169432,
      "byteStride": 12,
      "name": "floatBufferViews",
      "target": 34962
    }
  ],
  "buffers": [
    {
      "byteLength": 328168,
      "uri": "scene.bin"
    }
  ],
  "images": [
    {
      "uri": "textures/hulkavengers_baseColor.png"
    }
  ],
  "materials": [
    {
      "name": "hulkavengers",
      "pbrMetallicRoughness": {
        "baseColorTexture": {
          "index": 0
        }
      }
    }
  ],
  "meshes": [
    {
      "name": "Object_0",
      "primitives": [
        {
          "attributes": {
            "NORMAL": 1,
            "POSITION": 0,
            "TEXCOORD_0": 2
          },
          "indices": 3,
          "material": 0,
          "mode": 4
        }
      ]
    }
  ],
  "nodes": [
    {
      "children": [
        1
      ],
      "matrix": [
        1.0,
        0.0,
        0.0,
        0.0,
        0.0,
        2.220446049250313e-16,
        -1.0,
        0.0,
        0.0,
        1.0,
        2.220446049250313e-16,
        0.0,
        0.0,
        0.0,
        0.0,
        1.0
      ],
      "name": "Sketchfab_model"
    },
    {
      "children": [
        2
      ],
      "name": "root"
    },
    {
      "children": [
        3
      ],
      "matrix": [
        1.0,
        0.0,
        0.0,
        0.0,
        0.0,
        2.220446049250313e-16,
        1.0,
        0.0,
        0.0,
        -1.0,
        2.220446049250313e-16,
        0.0,
        0.0,
        0.0,
        0.0,
        1.0
      ],
      "name": "GLTF_SceneRootNode"
    },
    {
      "children": [
        4
      ],
      "matrix": [
        1.0,
        0.0,
        0.0,
        0.0,
        0.0,
        -1.1920928955078125e-07,
        -0.9999998807907104,
        0.0,
        0.0,
        0.9999998807907104,
        -1.1920928955078125e-07,
        0.0,
        -4.692554473876953,
        -0.026987062767148018,
        3.440322160720825,
        1.0
      ],
      "name": "_0"
    },
    {
      "mesh": 0,
      "name": "Object_4"
    }
  ],
  "samplers": [
    {
      "magFilter": 9729,
      "minFilter": 9729,
      "wrapS": 10497,
      "wrapT": 10497
    }
  ],
  "scene": 0,
  "scenes": [
    {
      "name": "Sketchfab_Scene",
      "nodes": [
        0
      ]
    }
  ],
  "textures": [
    {
      "sampler": 0,
      "source": 0
    }
  ]
}
